<svg width="30" height="32" viewBox="0 0 30 32" fill="none" xmlns="http://www.w3.org/2000/svg">
<g clip-path="url(#clip0_30_1042)">
<path fill-rule="evenodd" clip-rule="evenodd" d="M15.0088 0.0946198C23.2684 0.0946198 29.964 7.08277 29.964 15.7029C29.964 24.3234 23.2684 31.3117 15.0088 31.3117C6.74946 31.3117 0.053894 24.3234 0.053894 15.7029C0.0540807 7.08258 6.74965 0.0946198 15.0088 0.0946198Z" fill="#373B92"/>
<mask id="mask0_30_1042" style="mask-type:alpha" maskUnits="userSpaceOnUse" x="0" y="0" width="30" height="32">
<path fill-rule="evenodd" clip-rule="evenodd" d="M15.0096 0.0947266C23.2692 0.0947266 29.9648 7.08288 29.9648 15.703C29.9648 24.3235 23.2692 31.3118 15.0096 31.3118C6.75026 31.3118 0.0546875 24.3235 0.0546875 15.703C0.0548742 7.08268 6.75044 0.0947266 15.0096 0.0947266Z" fill="#373B92"/>
</mask>
<g mask="url(#mask0_30_1042)">
<path d="M2.35815 23.8467V6.75074C2.35815 6.75074 4.5541 6.46944 6.75043 6.8734C8.94656 7.27716 11.1429 8.36658 11.1429 11.108C11.1429 12.3549 10.7387 13.2618 10.3347 13.8571C9.93088 14.4524 9.52688 14.7358 9.52688 14.7358C9.52688 14.7358 10.4122 15.0152 11.2975 15.7386C12.1829 16.4622 13.0682 17.6304 13.0682 19.4085C13.0682 21.1863 12.4341 22.3768 11.395 23.1227C10.3562 23.8686 8.91201 24.1703 7.2919 24.1703H13.3C14.224 24.1703 15.9369 24.0306 17.4183 23.3264C18.9002 22.6219 20.1506 21.3525 20.1506 19.0929C20.1506 17.3556 19.2657 16.2053 18.38 15.4898C17.495 14.7742 16.6095 14.4929 16.6095 14.4929C16.6095 14.4929 17.0327 14.3555 17.4558 13.8143C17.8794 13.273 18.3025 12.3275 18.3025 10.7119C18.3025 9.09605 17.4773 8.04498 16.478 7.39806C15.4788 6.75094 14.3056 6.50778 13.6095 6.50778H20.1506C21.3456 6.50778 22.6925 6.85208 23.7414 7.54849C24.7902 8.2451 26.0007 9.99997 26.0007 11.5C26.0007 13 25.0007 15.4898 25.0007 15.4898L23.5007 19.5C23.0007 21 23 23.1935 25.0007 23.8467C27.0014 24.5 29.2863 21.6919 29.2863 21.6919" stroke="white" stroke-miterlimit="2.613" stroke-linecap="round" stroke-linejoin="round"/>
</g>
</g>
<defs>
<clipPath id="clip0_30_1042">
<rect width="30" height="31.3147" fill="white"/>
</clipPath>
</defs>
</svg>
